<svg width="40" height="40" viewBox="0 0 40 40" fill="none" xmlns="http://www.w3.org/2000/svg">
<path d="M21.2637 0C22.8169 5.01038e-05 24.117 1.17712 24.2715 2.72266C24.5112 5.1228 27.3283 6.28892 29.1953 4.76172C30.3976 3.77849 32.1497 3.8658 33.248 4.96387L35.0361 6.75195C36.1342 7.8504 36.221 9.60268 35.2373 10.8047C33.7102 12.6714 34.8774 15.4873 37.2773 15.7275C38.8228 15.8825 40 17.1831 40 18.7363V21.2637C40 22.817 38.8229 24.1179 37.2773 24.2725C34.8772 24.5125 33.7108 27.3285 35.2383 29.1953C36.2217 30.3974 36.1342 32.1488 35.0361 33.2471L33.25 35.0342C32.1515 36.1329 30.3987 36.2203 29.1963 35.2363C27.3291 33.7084 24.5124 34.8756 24.2725 37.2764C24.1179 38.8224 22.8165 40 21.2627 40H18.7363C17.1831 40 15.8825 38.8228 15.7275 37.2773C15.4873 34.8774 12.6714 33.7102 10.8047 35.2373C9.60268 36.221 7.8504 36.1342 6.75195 35.0361L4.96387 33.248C3.8658 32.1497 3.77848 30.3976 4.76172 29.1953C6.28892 27.3283 5.1228 24.5112 2.72266 24.2715C1.17712 24.117 4.99836e-05 22.8169 0 21.2637V18.7363C9.99563e-05 17.183 1.17711 15.8824 2.72266 15.7275C5.12303 15.4873 6.29017 12.6708 4.7627 10.8037C3.77884 9.60134 3.86629 7.84856 4.96484 6.75L6.75195 4.96289C7.85038 3.86478 9.60259 3.77714 10.8047 4.76074C12.6714 6.28811 15.487 5.12252 15.7275 2.72266C15.8823 1.17718 17.1831 0 18.7363 0H21.2637ZM20 12C15.5818 12.0001 12 15.5818 12 20C12.0001 24.4182 15.5818 27.9999 20 28C24.4183 28 27.9999 24.4182 28 20C28 15.5817 24.4183 12 20 12Z" fill="white"/>
</svg>
