<svg width="110" height="110" viewBox="0 0 110 110" fill="none" xmlns="http://www.w3.org/2000/svg">
<mask id="mask0_339_177" style="mask-type:alpha" maskUnits="userSpaceOnUse" x="30" y="25" width="50" height="50">
<path d="M30 58.3333H36V75H30V58.3333Z" fill="white"/>
<path d="M41 33.3333H47V75H41V33.3333Z" fill="white"/>
<path d="M52 25H58V75H52V25Z" fill="white"/>
<path d="M63 41.6667H69V75H63V41.6667Z" fill="white"/>
<path d="M74 50H80V75H74V50Z" fill="white"/>
</mask>
<g mask="url(#mask0_339_177)">
<circle cx="55.0001" cy="50" r="41.0792" fill="white"/>
</g>
<path d="M55 9.5C80.129 9.5 100.5 29.871 100.5 55C100.5 80.129 80.129 100.5 55 100.5C29.871 100.5 9.5 80.129 9.5 55C9.5 29.871 29.871 9.5 55 9.5Z" stroke="white"/>
<path fill-rule="evenodd" clip-rule="evenodd" d="M55 4.99992C82.6142 4.99992 105 27.3857 105 54.9999C105 82.6142 82.6142 105 55 105C27.3858 105 5 82.6142 5 54.9999C5 27.3857 27.3858 4.99992 55 4.99992ZM55 7.99992C29.0426 7.99992 8 29.0425 8 54.9999C8 80.9573 29.0426 102 55 102C80.9574 102 102 80.9573 102 54.9999C102 29.0425 80.9574 7.99992 55 7.99992Z" fill="white"/>
<path d="M98 54.9999L104 50.9999L110 54.9999L104 58.9999L98 54.9999Z" fill="white"/>
<path d="M0 54.9999L6 50.9999L12 54.9999L6 58.9999L0 54.9999Z" fill="white"/>
<path d="M55 97.9999L59 104L55 110L51 104L55 97.9999Z" fill="white"/>
<path d="M55 -0.00012207L59 5.99988L55 11.9999L51 5.99988L55 -0.00012207Z" fill="white"/>
</svg>
