<svg width="206" height="142" viewBox="0 0 206 142" fill="none" xmlns="http://www.w3.org/2000/svg">
<path d="M125.556 55.25L103.123 32.8171L80.6901 55.25H68L103.25 20L138.5 55.25H125.556Z" fill="#4EB2FF"/>
<path d="M0.539062 25.9658L45.5391 70.9658L0.539062 115.966L0.539062 141.422L71.25 70.7109L0.539062 0V25.9658Z" fill="white"/>
<path d="M125.556 88L103.123 110.433L80.6901 88H68L103.25 123.25L138.5 88H125.556Z" fill="#4EB2FF"/>
<path d="M205.711 25.9658L160.711 70.9658L205.711 115.966V141.422L135 70.7109L205.711 0V25.9658Z" fill="white"/>
<path d="M131.569 71.2843L103.284 43L75 71.2843L103.284 99.5685L131.569 71.2843Z" fill="white"/>
</svg>
