<svg width="247" height="71" viewBox="0 0 247 71" fill="none" xmlns="http://www.w3.org/2000/svg">
<rect width="247.003" height="71" rx="10" fill="#495891" fill-opacity="0.5"/>
<path d="M75.9131 43.2383C74.3473 43.8307 72.57 44.127 70.5811 44.127C64.0641 44.127 60.8057 40.9743 60.8057 34.6689C60.8057 28.7021 64.0641 25.7188 70.5811 25.7188C72.57 25.7188 74.3473 26.015 75.9131 26.6074V29.6543C74.3473 28.9772 72.6546 28.6387 70.835 28.6387C66.4762 28.6387 64.2969 30.6488 64.2969 34.6689C64.2969 39.0277 66.4762 41.207 70.835 41.207C72.6546 41.207 74.3473 40.8685 75.9131 40.1914V43.2383ZM81.499 37.2842C81.499 40.0687 82.5781 41.4609 84.7363 41.4609C86.8945 41.4609 87.9736 40.0687 87.9736 37.2842C87.9736 34.5674 86.8945 33.209 84.7363 33.209C82.5781 33.209 81.499 34.5674 81.499 37.2842ZM78.1348 37.335C78.1348 32.8662 80.3353 30.6318 84.7363 30.6318C89.1374 30.6318 91.3379 32.8662 91.3379 37.335C91.3379 41.7952 89.1374 44.0254 84.7363 44.0254C80.3522 44.0254 78.1517 41.7952 78.1348 37.335ZM93.877 44V30.6699H96.4795L96.8731 32.5996C98.0664 31.3132 99.501 30.6699 101.177 30.6699C102.853 30.6699 103.999 31.2793 104.617 32.498C105.98 31.2793 107.406 30.6699 108.896 30.6699C111.959 30.6699 113.491 32.3584 113.491 35.7354V44H110.127V35.6084C110.127 34.1273 109.458 33.3867 108.121 33.3867C107.122 33.3867 106.162 33.8353 105.239 34.7324V44H101.875V35.6465C101.875 34.14 101.257 33.3867 100.021 33.3867C99.0397 33.3867 98.113 33.8353 97.2412 34.7324V44H93.877ZM120.042 40.5215C120.88 40.9785 121.781 41.207 122.746 41.207C124.752 41.207 125.755 39.7979 125.755 36.9795C125.755 34.5843 124.646 33.3867 122.429 33.3867C121.472 33.3867 120.677 33.446 120.042 33.5645V40.5215ZM116.678 31.2158C118.447 30.8519 120.317 30.6699 122.289 30.6699C126.817 30.6699 129.081 32.7816 129.081 37.0049C129.081 41.6683 126.974 44 122.759 44C121.862 44 120.956 43.7884 120.042 43.3652V48.8242H116.678V31.2158ZM134.997 25.8457V44H131.633V25.8457H134.997ZM143.808 30.6699C147.853 30.6699 149.876 32.735 149.876 36.8652C149.876 37.4154 149.838 37.9655 149.762 38.5156H140.913C140.913 40.3945 142.293 41.334 145.052 41.334C146.397 41.334 147.743 41.207 149.089 40.9531V43.6191C147.912 43.873 146.482 44 144.798 44C139.965 44 137.549 41.7275 137.549 37.1826C137.549 32.8408 139.635 30.6699 143.808 30.6699ZM140.913 36.1797H146.601V36.0781C146.601 34.2331 145.67 33.3105 143.808 33.3105C142.03 33.3105 141.065 34.2669 140.913 36.1797ZM152.212 28.5117H154.7L155.208 30.6699H158.56V33.3359H155.576V39.4678C155.576 40.7119 156.114 41.334 157.188 41.334H158.56V44H155.563C153.329 44 152.212 42.8024 152.212 40.4072V28.5117ZM166.481 30.6699C170.527 30.6699 172.55 32.735 172.55 36.8652C172.55 37.4154 172.512 37.9655 172.436 38.5156H163.587C163.587 40.3945 164.966 41.334 167.726 41.334C169.071 41.334 170.417 41.207 171.763 40.9531V43.6191C170.586 43.873 169.156 44 167.472 44C162.639 44 160.223 41.7275 160.223 37.1826C160.223 32.8408 162.309 30.6699 166.481 30.6699ZM163.587 36.1797H169.274V36.0781C169.274 34.2331 168.343 33.3105 166.481 33.3105C164.704 33.3105 163.739 34.2669 163.587 36.1797ZM183.519 34.1484C182.825 33.6914 181.953 33.4629 180.903 33.4629C178.813 33.4629 177.768 34.6351 177.768 36.9795C177.768 39.764 178.855 41.1562 181.03 41.1562C181.91 41.1562 182.74 41.0335 183.519 40.7881V34.1484ZM186.883 43.2002C184.843 43.7334 182.85 44 180.903 44C176.595 44 174.441 41.6895 174.441 37.0684C174.441 32.8027 176.549 30.6699 180.764 30.6699C181.661 30.6699 182.579 30.8815 183.519 31.3047V25.8457H186.883V43.2002Z" fill="#B6C2CB"/>
</svg>
