<svg width="247" height="71" viewBox="0 0 247 71" fill="none" xmlns="http://www.w3.org/2000/svg">
<rect width="247.003" height="71" rx="10" fill="#C5DEF1"/>
<path d="M97.4824 43.2383V40.1914C99.3021 40.8685 101.359 41.207 103.652 41.207C106.437 41.207 107.829 40.276 107.829 38.4141C107.829 37.0599 106.974 36.3828 105.265 36.3828H102.421C98.7054 36.3828 96.8477 34.6901 96.8477 31.3047C96.8477 27.5807 99.4925 25.7188 104.782 25.7188C106.813 25.7188 108.739 26.015 110.559 26.6074V29.6543C108.739 28.9772 106.813 28.6387 104.782 28.6387C101.735 28.6387 100.212 29.5273 100.212 31.3047C100.212 32.6589 100.948 33.3359 102.421 33.3359H105.265C109.217 33.3359 111.193 35.0286 111.193 38.4141C111.193 42.2227 108.68 44.127 103.652 44.127C101.359 44.127 99.3021 43.8307 97.4824 43.2383ZM113.542 28.5117H116.03L116.538 30.6699H119.89V33.3359H116.906V39.4678C116.906 40.7119 117.444 41.334 118.519 41.334H119.89V44H116.894C114.659 44 113.542 42.8024 113.542 40.4072V28.5117ZM121.553 39.8486C121.553 37.1995 123.482 35.875 127.342 35.875C128.247 35.875 129.153 35.9596 130.059 36.1289V35.126C130.059 33.9326 129.2 33.3359 127.481 33.3359C126.026 33.3359 124.409 33.5475 122.632 33.9707V31.3047C124.409 30.8815 126.026 30.6699 127.481 30.6699C131.442 30.6699 133.423 32.1341 133.423 35.0625V44H131.468L130.274 42.8066C129.115 43.6022 127.837 44 126.44 44C123.182 44 121.553 42.6162 121.553 39.8486ZM130.059 38.4141C129.212 38.2448 128.307 38.1602 127.342 38.1602C125.725 38.1602 124.917 38.7103 124.917 39.8105C124.917 40.9954 125.594 41.5879 126.948 41.5879C128.065 41.5879 129.102 41.2409 130.059 40.5469V38.4141ZM136.609 44V30.6699H139.212L139.631 32.3711C140.799 31.237 142.035 30.6699 143.338 30.6699V33.3867C142.085 33.3867 140.964 33.9072 139.974 34.9482V44H136.609ZM145.052 28.5117H147.54L148.048 30.6699H151.399V33.3359H148.416V39.4678C148.416 40.7119 148.953 41.334 150.028 41.334H151.399V44H148.403C146.169 44 145.052 42.8024 145.052 40.4072V28.5117Z" fill="#252B3B"/>
</svg>
