<svg width="1373" height="870" viewBox="0 0 1373 870" fill="none" xmlns="http://www.w3.org/2000/svg">
<path d="M1345 0C1347.21 0 1348.97 1.8043 1349.33 3.98325C1351.01 14.0468 1358.95 21.99 1369.02 23.671C1371.2 24.0349 1373 25.7909 1373 28V842C1373 844.209 1371.2 845.965 1369.02 846.329C1358.95 848.01 1351.01 855.953 1349.33 866.017C1348.97 868.196 1347.21 870 1345 870H28C25.7908 870 24.0349 868.196 23.671 866.017C21.99 855.953 14.0468 848.01 3.98325 846.329C1.8043 845.965 0 844.209 0 842V28C0 25.7909 1.8043 24.0349 3.98325 23.671C14.0468 21.99 21.99 14.0468 23.671 3.98325C24.0349 1.8043 25.7909 0 28 0H1345Z" fill="#252B3B" fill-opacity="0.9"/>
<path d="M37.5918 12.5H1335.41C1336.14 12.5002 1337.01 13.1413 1337.21 14.3066C1339.04 25.2031 1347.71 33.7778 1358.67 35.5928C1359.88 35.7939 1360.5 36.6793 1360.5 37.3564V832.644C1360.5 833.321 1359.88 834.206 1358.67 834.407C1347.71 836.222 1339.04 844.797 1337.21 855.693C1337.01 856.859 1336.14 857.5 1335.41 857.5H37.5918C36.864 857.5 35.9875 856.859 35.791 855.693C33.9552 844.797 25.2922 836.222 14.334 834.407C13.1196 834.206 12.5 833.321 12.5 832.644V37.3564C12.5 36.6792 13.1197 35.7939 14.334 35.5928C25.2922 33.7778 33.9552 25.2031 35.791 14.3066C35.9875 13.1413 36.864 12.5002 37.5918 12.5Z" stroke="#CFC388" stroke-width="5"/>
</svg>
