<svg width="290" height="36" viewBox="0 0 290 36" fill="none" xmlns="http://www.w3.org/2000/svg">
<path d="M240 0L213.333 36H0V0H240Z" fill="#D8E0FF"/>
<path d="M14.7578 26V9.24219H22.2578C25.6797 9.24219 27.3906 10.8164 27.3906 13.9648C27.3906 17.3789 25.0508 19.4453 20.3711 20.1641L19.9258 17.3984C22.7383 16.8906 24.1445 15.7773 24.1445 14.0586C24.1445 12.668 23.4492 11.9727 22.0586 11.9727H17.8633V26H14.7578ZM33.1516 13.6953C36.8859 13.6953 38.7531 15.6016 38.7531 19.4141C38.7531 19.9219 38.718 20.4297 38.6477 20.9375H30.4797C30.4797 22.6719 31.7531 23.5391 34.3 23.5391C35.5422 23.5391 36.7844 23.4219 38.0266 23.1875V25.6484C36.9406 25.8828 35.6203 26 34.0656 26C29.6047 26 27.3742 23.9023 27.3742 19.707C27.3742 15.6992 29.3 13.6953 33.1516 13.6953ZM30.4797 18.7812H35.7297V18.6875C35.7297 16.9844 34.8703 16.1328 33.1516 16.1328C31.5109 16.1328 30.6203 17.0156 30.4797 18.7812ZM39.8852 26V13.6953H42.2875L42.6742 15.2656C43.7523 14.2188 44.893 13.6953 46.0961 13.6953V16.2031C44.9398 16.2031 43.9047 16.6836 42.9906 17.6445V26H39.8852ZM46.6539 25.4141V22.8359C48.0211 23.3828 49.5992 23.6562 51.3883 23.6562C52.7242 23.6562 53.3922 23.2266 53.3922 22.3672C53.3922 21.5469 52.943 21.1367 52.0445 21.1367H49.818C47.318 21.1367 46.068 19.9062 46.068 17.4453C46.068 14.8672 47.8922 13.5781 51.5406 13.5781C53.0875 13.5781 54.5445 13.8125 55.9117 14.2812V16.8594C54.5445 16.3125 53.0602 16.0391 51.4586 16.0391C49.7789 16.0391 48.9391 16.4688 48.9391 17.3281C48.9391 18.1484 49.4273 18.5586 50.4039 18.5586H52.3961C55.1305 18.5586 56.4977 19.7891 56.4977 22.25C56.4977 24.8281 54.7555 26.1172 51.2711 26.1172C49.5602 26.1172 48.0211 25.8828 46.6539 25.4141ZM59.9969 19.8008C59.9969 22.3711 60.993 23.6562 62.9852 23.6562C64.9773 23.6562 65.9734 22.3711 65.9734 19.8008C65.9734 17.293 64.9773 16.0391 62.9852 16.0391C60.993 16.0391 59.9969 17.293 59.9969 19.8008ZM56.8914 19.8477C56.8914 15.7227 58.9227 13.6602 62.9852 13.6602C67.0477 13.6602 69.0789 15.7227 69.0789 19.8477C69.0789 23.9648 67.0477 26.0234 62.9852 26.0234C58.9383 26.0234 56.907 23.9648 56.8914 19.8477ZM70.2227 26V13.6953H72.625L73.0117 15.5C74.1914 14.2969 75.5352 13.6953 77.043 13.6953C79.957 13.6953 81.4141 15.2109 81.4141 18.2422V26H78.3086V18.2422C78.3086 16.8828 77.6328 16.2031 76.2812 16.2031C75.2734 16.2031 74.2891 16.6055 73.3281 17.4102V26H70.2227ZM82.5695 22.168C82.5695 19.7227 84.3508 18.5 87.9133 18.5C88.7492 18.5 89.5852 18.5781 90.4211 18.7344V17.8086C90.4211 16.707 89.6281 16.1562 88.0422 16.1562C86.6984 16.1562 85.2063 16.3516 83.5656 16.7422V14.2812C85.2063 13.8906 86.6984 13.6953 88.0422 13.6953C91.6984 13.6953 93.5266 15.0469 93.5266 17.75V26H91.7219L90.6203 24.8984C89.55 25.6328 88.3703 26 87.0813 26C84.0734 26 82.5695 24.7227 82.5695 22.168ZM90.4211 20.8438C89.6398 20.6875 88.8039 20.6094 87.9133 20.6094C86.4211 20.6094 85.675 21.1172 85.675 22.1328C85.675 23.2266 86.3 23.7734 87.55 23.7734C88.5813 23.7734 89.5383 23.4531 90.4211 22.8125V20.8438ZM98.3734 9.24219V26H95.268V9.24219H98.3734ZM103.22 9.24219V11.7031H100.115V9.24219H103.22ZM103.22 13.6953V26H100.115V13.6953H103.22ZM104.786 11.7031H107.083L107.552 13.6953H110.645V16.1562H107.891V21.8164C107.891 22.9648 108.387 23.5391 109.38 23.5391H110.645V26H107.88C105.817 26 104.786 24.8945 104.786 22.6836V11.7031ZM110.102 13.6953H113.395L116.5 22.5547L119.535 13.6953H122.77L117.66 26.3633C116.754 28.5977 115.305 30.1875 113.312 31.1328L111.812 29.0117C113.188 28.4102 114.188 27.4297 114.812 26.0703L110.102 13.6953Z" fill="#252B3B"/>
</svg>
